<svg width="16" height="16" viewBox="0 0 16 16" fill="none" xmlns="http://www.w3.org/2000/svg">
<path d="M7.62859 0C7.98563 0 8.32804 0.133082 8.58051 0.36997C8.83297 0.606858 8.97481 0.928148 8.97481 1.26316C8.97481 1.59817 8.83297 1.91946 8.58051 2.15635C8.32804 2.39323 7.98563 2.52632 7.62859 2.52632H3.14118C3.02217 2.52632 2.90803 2.57068 2.82388 2.64964C2.73972 2.7286 2.69244 2.8357 2.69244 2.94737V13.0526C2.69244 13.1643 2.73972 13.2714 2.82388 13.3504C2.90803 13.4293 3.02217 13.4737 3.14118 13.4737H7.17985C7.53689 13.4737 7.8793 13.6068 8.13177 13.8437C8.38423 14.0805 8.52607 14.4018 8.52607 14.7368C8.52607 15.0719 8.38423 15.3931 8.13177 15.63C7.8793 15.8669 7.53689 16 7.17985 16H3.14118C2.30809 16 1.50912 15.6895 0.920031 15.1367C0.330945 14.584 0 13.8343 0 13.0526V2.94737C0 2.16568 0.330945 1.416 0.920031 0.863264C1.50912 0.310525 2.30809 0 3.14118 0H7.62859ZM13.0673 4.72421L15.6063 7.10737C15.8584 7.34421 16 7.66526 16 8C16 8.33474 15.8584 8.65579 15.6063 8.89263L13.0682 11.2758C12.8157 11.5128 12.4731 11.6459 12.116 11.6459C11.7588 11.6459 11.4163 11.5128 11.1638 11.2758C10.9112 11.0388 10.7693 10.7174 10.7693 10.3823C10.7693 10.0472 10.9112 9.72581 11.1638 9.48884L11.4043 9.26316H7.62859C7.27155 9.26316 6.92913 9.13008 6.67666 8.89319C6.4242 8.6563 6.28236 8.33501 6.28236 8C6.28236 7.66499 6.4242 7.3437 6.67666 7.10681C6.92913 6.86992 7.27155 6.73684 7.62859 6.73684H11.4043L11.1638 6.51116C11.0388 6.39383 10.9396 6.25454 10.872 6.10126C10.8044 5.94798 10.7696 5.7837 10.7697 5.61781C10.7697 5.45191 10.8046 5.28765 10.8723 5.1344C10.94 4.98115 11.0392 4.84191 11.1642 4.72463C11.2893 4.60735 11.4377 4.51434 11.6011 4.45089C11.7644 4.38744 11.9395 4.3548 12.1163 4.35484C12.2931 4.35488 12.4682 4.38759 12.6315 4.45111C12.7948 4.51464 12.9432 4.60772 13.0682 4.72505L13.0673 4.72421Z" fill="#2C2C2C"/>
</svg>
