<svg width="9" height="11" viewBox="0 0 9 11" fill="none" xmlns="http://www.w3.org/2000/svg">
<path d="M4.5 5.8501C3.88125 5.8501 3.35156 5.62979 2.91094 5.18916C2.47031 4.74853 2.25 4.21885 2.25 3.6001C2.25 2.98135 2.47031 2.45166 2.91094 2.01104C3.35156 1.57041 3.88125 1.3501 4.5 1.3501C5.11875 1.3501 5.64844 1.57041 6.08906 2.01104C6.52969 2.45166 6.75 2.98135 6.75 3.6001C6.75 4.21885 6.52969 4.74853 6.08906 5.18916C5.64844 5.62979 5.11875 5.8501 4.5 5.8501ZM0 10.3501V8.7751C0 8.45635 0.0821251 8.16347 0.246375 7.89647C0.410625 7.62947 0.6285 7.42547 0.9 7.28447C1.48125 6.99385 2.07187 6.77597 2.67187 6.63085C3.27187 6.48572 3.88125 6.41297 4.5 6.4126C5.11875 6.41222 5.72812 6.48497 6.32812 6.63085C6.92812 6.77672 7.51875 6.9946 8.1 7.28447C8.37187 7.4251 8.58994 7.6291 8.75419 7.89647C8.91844 8.16385 9.00037 8.45672 9 8.7751V10.3501H0Z" fill="#3572EF"/>
<circle cx="6.74922" cy="1.8" r="1.8" fill="white"/>
<rect x="5.30859" y="1.62" width="2.88" height="0.36" rx="0.18" fill="#3572EF"/>
<rect x="6.92969" y="0.359985" width="2.88" height="0.36" rx="0.18" transform="rotate(90 6.92969 0.359985)" fill="#3572EF"/>
</svg>
