<svg width="18" height="18" viewBox="0 0 18 18" fill="none" xmlns="http://www.w3.org/2000/svg">
<path opacity="0.5" d="M9 18C4.7574 18 2.6361 18 1.3176 16.6815C0 15.3648 0 13.2426 0 9C0 4.7574 0 2.6361 1.3176 1.3176C2.637 0 4.7574 0 9 0C13.2426 0 15.3639 0 16.6815 1.3176C18 2.637 18 4.7574 18 9C18 13.2426 18 15.3639 16.6815 16.6815C15.3648 18 13.2426 18 9 18Z" fill="#3572EF"/>
<path d="M8.99951 5.62488C9.17853 5.62488 9.35022 5.69599 9.47681 5.82258C9.6034 5.94917 9.67451 6.12086 9.67451 6.29988V8.32488H11.6995C11.8785 8.32488 12.0502 8.39599 12.1768 8.52258C12.3034 8.64917 12.3745 8.82086 12.3745 8.99988C12.3745 9.1789 12.3034 9.35059 12.1768 9.47717C12.0502 9.60376 11.8785 9.67488 11.6995 9.67488H9.67451V11.6999C9.67451 11.8789 9.6034 12.0506 9.47681 12.1772C9.35022 12.3038 9.17853 12.3749 8.99951 12.3749C8.82049 12.3749 8.6488 12.3038 8.52221 12.1772C8.39563 12.0506 8.32451 11.8789 8.32451 11.6999V9.67488H6.29951C6.12049 9.67488 5.9488 9.60376 5.82221 9.47717C5.69563 9.35059 5.62451 9.1789 5.62451 8.99988C5.62451 8.82086 5.69563 8.64917 5.82221 8.52258C5.9488 8.39599 6.12049 8.32488 6.29951 8.32488H8.32451V6.29988C8.32451 6.12086 8.39563 5.94917 8.52221 5.82258C8.6488 5.69599 8.82049 5.62488 8.99951 5.62488Z" fill="#3572EF"/>
</svg>
